# xmcd CD database file
#
# Track frame offsets:
#	150
#	19104
#	36091
#	54934
#	76087
#	97284
#	116306
#	135511
#	157178
#	177528
#	200210
#	225350
#
# Disc length: 3344 seconds
#
# Revision: 0
# Processed by: cddbd v1.5.1PL0 Copyright (c) Steve Scherf et al.
# Submitted via: CDex 1.51
#
DISCID=990d0e0c
DTITLE=Diverse - J&N Latin Hits Jam
DYEAR=2004
DGENRE=Salsa
TTITLE0=Aventura - Obsesion
TTITLE1=Yoskar Sarante - La Noche
TTITLE2=Puerto Rican Power - Tu Cariniyo
TTITLE3=Kinto Mendez - Cachmba
TTITLE4=Frank Reyes - vine a decirte adios
TTITLE5=TMC - Don Pedrito
TTITLE6=Male Fe - La Vaca
TTITLE7=Los Toros Band - Ouizas Si Ouizas No
TTITLE8=Willie Rosario - Arrepentidos
TTITLE9=Eddy Herrera - Pegame Tu Vicio
TTITLE10=Monchy and Alexandra - Hoja En Blanco
TTITLE11=12
EXTD=YEAR: 2004
EXTT0=
EXTT1=
EXTT2=
EXTT3=
EXTT4=
EXTT5=
EXTT6=
EXTT7=
EXTT8=
EXTT9=
EXTT10=
EXTT11=
PLAYORDER=
